# Blender v3.1.2 OBJ File: 'character.blend'
# www.blender.org
mtllib Flashlight.mtl
o Flashlight_Cube.008
v 0.221864 0.091021 0.737223
v -0.227951 0.091021 0.737223
v -0.080438 -0.070738 0.432100
v -0.080438 0.091021 0.432100
v 0.221864 -0.070738 0.737223
v -0.227951 -0.070738 0.737223
v 0.081321 -0.070738 0.432100
v 0.081321 0.091021 0.432100
v -0.080438 0.091021 -0.002903
v -0.080438 -0.070738 -0.002903
v 0.081321 -0.070738 -0.002903
v 0.081321 0.091021 -0.002903
v -0.080438 0.289066 0.432100
v 0.081321 0.289066 0.432100
v -0.227951 0.289066 0.593859
v -0.227951 -0.258202 0.593859
v 0.221864 0.289066 0.593859
v 0.221864 -0.258202 0.593859
v 0.081321 0.289066 0.737223
v -0.080438 0.289066 0.737223
v -0.080438 -0.258202 0.737223
v 0.081321 -0.258202 0.737223
v -0.227951 0.289066 0.737223
v -0.227951 -0.258202 0.737223
v 0.221864 0.289066 0.737223
v 0.221864 -0.258202 0.737223
v -0.080438 -0.108390 0.432100
v -0.080438 -0.258202 0.581912
v 0.081321 -0.258202 0.581912
v 0.081321 -0.108390 0.432100
v -0.227951 0.091021 0.581911
v -0.078140 0.091021 0.432100
v -0.227951 -0.070738 0.581911
v -0.078140 -0.070738 0.432100
v -0.080438 0.289066 0.432100
v -0.227951 0.289066 0.581911
v -0.078140 0.289066 0.432100
v -0.078140 -0.108390 0.432100
v -0.227951 -0.258202 0.581911
v 0.221864 0.091021 0.581912
v 0.072052 0.091021 0.432100
v 0.072052 -0.070738 0.432100
v 0.221864 -0.070738 0.581912
v 0.221864 0.289066 0.581912
v 0.081321 0.289066 0.432100
v 0.072052 0.289066 0.432100
v 0.072052 -0.108390 0.432100
v 0.221864 -0.258202 0.581912
vt 0.875000 0.500000
vt 0.625000 0.500000
vt 0.625000 0.500000
vt 0.875000 0.500000
vt 0.375000 0.250000
vt 0.625000 0.250000
vt 0.375000 0.500000
vt 0.375000 0.250000
vt 0.625000 0.250000
vt 0.375000 0.500000
vt 0.125000 0.500000
vt 0.125000 0.500000
vt 0.625000 1.000000
vt 0.625000 1.000000
vt 0.625000 1.000000
vt 0.375000 1.000000
vt 0.375000 1.000000
vt 0.375000 1.000000
vt 0.375000 0.750000
vt 0.375000 0.750000
vt 0.375000 0.750000
vt 0.625000 0.750000
vt 0.625000 0.750000
vt 0.625000 0.750000
vt 0.875000 0.750000
vt 0.625000 0.750000
vt 0.625000 0.731535
vt 0.639325 0.500000
vt 0.625000 0.500000
vt 0.625000 0.500000
vt 0.875000 0.500000
vt 0.875000 0.500000
vt 0.871447 0.500000
vt 0.875000 0.731535
vt 0.875000 0.750000
vt 0.875000 0.750000
vt 0.000000 0.000000
vt 0.000000 0.000000
vt 0.000000 0.000000
vt 0.000000 0.000000
vt 0.000000 0.000000
vt 0.000000 0.000000
vt 0.625000 0.000000
vt 0.625000 0.018465
vt 0.554930 0.109629
vt 0.443889 0.108711
vt 0.375000 0.018465
vt 0.375000 0.000000
vt 0.375000 0.000000
vt 0.375000 0.000000
vt 0.625000 0.000000
vt 0.625000 0.000000
vt 0.443889 0.641289
vt 0.554930 0.640371
vt 0.375000 0.750000
vt 0.375000 0.731535
vt 0.125000 0.750000
vt 0.125000 0.750000
vt 0.125000 0.750000
vt 0.125000 0.731535
vt 0.192273 0.648351
vt 0.309053 0.649487
vt 0.875000 0.500000
vt 0.875000 0.500000
vt 0.625000 0.500000
vt 0.625000 0.500000
vt 0.875000 0.500000
vt 0.653212 0.473500
vt 0.443419 0.482985
vt 0.583498 0.487687
vt 0.426501 0.441998
vt 0.375000 0.250000
vt 0.371229 0.446100
vt 0.415897 0.485412
vt 0.125000 0.500000
vt 0.371911 0.447169
vt 0.414859 0.484236
vn 0.0000 1.0000 0.0000
vn 0.0000 0.0000 -1.0000
vn -1.0000 0.0000 0.0000
vn 1.0000 0.0000 0.0000
vn 0.0000 -1.0000 0.0000
vn 0.0000 0.0000 1.0000
vn -0.7098 -0.0041 -0.7044
vn 0.7071 0.0000 -0.7071
vn -0.7071 0.0000 -0.7071
vn 0.0000 -0.7071 -0.7071
vn 0.7180 -0.0168 -0.6958
usemtl None
s off
f 4/1/1 8/2/1 12/3/1 9/4/1
f 10/5/2 9/6/2 12/3/2 11/7/2
f 3/8/3 4/9/3 9/6/3 10/5/3
f 8/2/4 7/10/4 11/7/4 12/3/4
f 7/10/5 3/11/5 10/12/5 11/7/5
f 20/13/6 23/14/6 2/15/6 6/16/6 24/17/6 21/18/6 22/19/6 26/20/6 5/21/6 1/22/6 25/23/6 19/24/6
f 20/25/1 19/24/1 25/23/1 17/26/1 44/27/1 46/28/1 45/29/1 14/30/1 13/31/1 35/32/1 37/33/1 36/34/1 15/35/1 23/36/1
f 13/37/6 35/38/6 37/39/6 46/40/6 45/41/6 14/42/6
f 15/43/3 36/44/3 31/45/3 33/46/3 39/47/3 16/48/3 24/49/3 6/50/3 2/51/3 23/52/3
f 43/53/4 40/54/4 44/27/4 17/26/4 25/23/4 1/22/4 5/21/4 26/20/4 18/55/4 48/56/4
f 18/55/5 26/20/5 22/19/5 21/57/5 24/58/5 16/59/5 39/60/5 28/61/5 29/62/5 48/56/5
f 35/32/1 36/63/1 37/64/1
f 44/65/1 45/29/1 46/66/1
f 31/67/7 36/63/7 35/32/7 32/68/7
f 40/54/8 43/53/8 42/69/8 41/70/8
f 32/68/9 34/71/9 33/72/9 31/67/9
f 29/62/10 28/61/10 27/73/10 30/74/10
f 39/75/9 33/72/9 34/71/9 38/76/9
f 28/61/10 39/60/10 38/76/10 27/73/10
f 44/27/11 40/54/11 41/70/11 45/29/11
f 47/77/8 42/69/8 43/53/8 48/56/8
f 48/56/10 29/62/10 30/74/10 47/77/10
f 32/68/2 35/32/2 13/31/2 14/30/2 45/29/2 41/70/2 42/69/2 47/77/2 30/74/2 27/73/2 38/76/2 34/71/2
