# Blender v3.1.2 OBJ File: 'character.blend'
# www.blender.org
mtllib RightArm.mtl
o RightArm_Cube.002
v 0.066145 -0.002464 -0.139673
v 0.066145 -1.126905 -0.139673
v 0.066145 -0.002464 0.139673
v 0.066145 -1.126905 0.139673
v -0.066145 -0.002464 -0.139673
v -0.066145 -1.126905 -0.139673
v -0.066145 -0.002464 0.139673
v -0.066145 -1.126905 0.139673
v 0.066145 -0.966045 -0.139673
v -0.066145 -0.966045 0.139673
v 0.066145 -0.966045 0.139673
v -0.066145 -0.966045 -0.139673
v 0.066145 -0.966045 0.437415
v 0.066145 -1.126905 0.437415
v -0.066145 -1.126905 0.437415
v -0.066145 -0.966045 0.437415
vt 0.625000 0.500000
vt 0.875000 0.500000
vt 0.875000 0.750000
vt 0.625000 0.750000
vt 0.410764 0.750000
vt 0.625000 1.000000
vt 0.410764 1.000000
vt 0.410764 0.000000
vt 0.625000 0.000000
vt 0.625000 0.250000
vt 0.410764 0.250000
vt 0.125000 0.500000
vt 0.375000 0.500000
vt 0.375000 0.750000
vt 0.125000 0.750000
vt 0.410764 0.500000
vt 0.375000 0.250000
vt 0.375000 0.000000
vt 0.375000 0.750000
vt 0.125000 0.750000
vt 0.410764 0.750000
vt 0.410764 1.000000
vt 0.375000 1.000000
vt 0.375000 0.000000
vt 0.410764 0.000000
vn 0.0000 1.0000 0.0000
vn 0.0000 0.0000 1.0000
vn -1.0000 0.0000 0.0000
vn 0.0000 -1.0000 0.0000
vn 1.0000 0.0000 0.0000
vn 0.0000 0.0000 -1.0000
usemtl Material
s off
f 1/1/1 5/2/1 7/3/1 3/4/1
f 11/5/2 3/4/2 7/6/2 10/7/2
f 10/8/3 7/9/3 5/10/3 12/11/3
f 6/12/4 2/13/4 4/14/4 8/15/4
f 9/16/5 1/1/5 3/4/5 11/5/5
f 12/11/6 5/10/6 1/1/6 9/16/6
f 6/17/6 12/11/6 9/16/6 2/13/6
f 2/13/5 9/16/5 11/5/5 4/14/5
f 8/18/3 10/8/3 12/11/3 6/17/3
f 8/15/4 4/14/4 14/19/4 15/20/4
f 14/19/2 13/21/2 16/22/2 15/23/2
f 11/5/1 10/7/1 16/22/1 13/21/1
f 4/14/5 11/5/5 13/21/5 14/19/5
f 10/8/3 8/18/3 15/24/3 16/25/3
