# Blender 3.5.1
# www.blender.org
mtllib blatt.mtl
o Tree_lp_11
v 2.446580 10.616720 -5.070472
v 2.282885 10.659231 -4.875155
v 2.361326 10.734528 -4.641877
v 2.617235 10.733487 -4.588936
v 2.777975 10.650423 -4.773391
v 2.702025 10.609319 -5.015832
v -4.123034 6.969834 0.347938
v -4.784925 7.201289 0.611991
v -5.176454 7.830512 0.778346
v -5.478899 7.701939 0.697826
v -5.435214 7.469505 0.939753
v -5.156966 7.628110 1.048795
v 0.946171 6.852332 1.507558
v 0.859724 6.738868 1.761217
v 1.107296 6.834838 1.880303
v 1.188856 6.736544 1.618834
v 5.484362 6.745533 -6.067618
v 5.663886 6.511816 -6.106521
v 5.531912 6.531572 -6.372112
v 5.537962 6.827804 -6.348135
v 1.135341 7.751668 1.814940
v 6.634517 12.418817 -3.556459
v 4.204128 14.810621 -2.582917
v 3.614664 11.357757 -2.030006
v 4.930080 9.565385 -4.792659
v 1.446319 10.193690 -4.583126
v 0.997655 13.435409 -3.217430
v 5.883854 15.152177 -5.687284
v 6.332537 11.910457 -7.052961
v 3.715509 13.988110 -8.240393
v 3.126045 10.535245 -7.687506
v 0.695674 12.927050 -6.713975
v 2.400093 15.780482 -5.477751
v -4.948638 13.157038 3.544601
v -0.520966 12.867537 4.199013
v -2.142452 15.538874 0.981719
v -3.054896 9.169392 4.337629
v 0.921680 9.086755 2.264870
v 1.485601 13.023328 0.190805
v -5.678524 13.491743 -0.868063
v -4.235874 9.710962 -2.802206
v -6.242438 9.555171 1.205999
v 0.191799 9.421521 -2.147794
v -1.701941 13.409106 -2.940822
v -7.367112 10.228495 4.072630
v -6.645710 11.788186 1.780117
v -8.601213 9.708088 1.539872
v -7.785004 7.528348 3.210565
v -7.321848 7.419227 0.385262
v -6.617697 10.051968 -0.498805
v -4.620882 10.894051 3.599291
v -5.325004 8.261310 4.483354
v -3.341505 8.605189 2.444682
v -5.297026 6.525090 2.204437
v -4.575613 8.084782 -0.088081
v -4.157727 10.784929 0.773984
v 0.015945 8.165339 0.719265
v 1.077747 9.341576 1.334187
v 1.668184 8.108393 0.324344
v 0.834866 6.675989 0.702249
v 2.402785 6.931727 1.306651
v 2.552894 8.579193 1.697206
v -0.120485 8.671310 2.336209
v -0.270593 7.023844 1.945654
v 0.614115 7.494646 3.318511
v 1.204558 6.261461 2.308672
v 2.266352 7.437699 2.923594
v 1.447433 8.927049 2.940610
v 8.513928 6.971728 -6.713606
v 7.076386 5.728984 -7.708974
v 7.122812 7.838157 -8.097813
v 7.493727 5.429536 -5.626190
v 5.472012 5.342778 -6.338287
v 5.242795 6.831352 -7.865868
v 7.568840 8.842211 -6.255345
v 5.964509 8.456003 -4.884658
v 7.798093 7.353592 -4.727790
v 5.918052 6.346848 -4.495828
v 4.526924 7.213215 -5.880013
v 5.547174 8.755474 -6.967450
v 1.225685 13.096911 -2.784810
v 2.782863 13.865778 -1.333652
v 1.860792 11.822012 -1.026050
v -0.324059 11.946486 -1.602970
v 0.275326 12.004412 0.578609
v 2.195509 13.190619 0.745058
v 1.167876 15.253408 -2.100678
v -0.752303 14.067201 -2.267125
v -0.417592 15.435746 -0.496019
v -1.339657 13.391979 -0.188418
v 0.217520 14.160908 1.262744
v 1.767262 15.311334 0.080901
v -2.536721 7.641445 3.131274
v 0.967567 7.648112 1.870503
v 1.186734 7.591411 1.948460
v 1.064272 7.743104 1.659435
v 1.284490 7.695395 1.738567
vn -0.9536 0.1689 -0.2494
vn -0.9535 0.1690 -0.2494
vn -0.4137 -0.0601 0.9084
vn 0.9302 -0.1354 0.3411
vn 0.4423 0.0676 -0.8943
vn 0.0761 0.8957 0.4380
vn 0.0762 0.8957 0.4380
vn 0.0762 0.8958 0.4380
vn 0.0761 0.8958 0.4380
vn 0.0295 0.8902 0.4547
vn 0.9094 -0.0522 -0.4127
vn 0.4301 0.0707 0.9000
vn 0.5204 -0.5817 0.6252
vn -0.1249 -0.8584 0.4975
vn -0.6140 -0.3771 0.6934
vn -0.2710 0.1971 0.9422
vn 0.6140 0.3771 -0.6934
vn 0.2710 -0.1971 -0.9422
vn -0.4301 -0.0707 -0.9000
vn -0.5204 0.5817 -0.6252
vn 0.1249 0.8584 -0.4975
vn 0.7123 0.5426 0.4451
vn 0.8584 -0.5129 0.0004
vn -0.1857 -0.9607 -0.2062
vn -0.9770 -0.1819 0.1108
vn -0.4221 0.7472 0.5134
vn 0.9770 0.1819 -0.1108
vn 0.4221 -0.7472 -0.5134
vn -0.7123 -0.5426 -0.4451
vn -0.8584 0.5129 -0.0004
vn 0.1857 0.9607 0.2062
vn -0.0469 0.7568 0.6520
vn -0.1366 0.1304 0.9820
vn 0.4407 -0.2698 0.8562
vn 0.8872 0.1091 0.4484
vn 0.5858 0.7436 0.3222
vn -0.8872 -0.1091 -0.4484
vn 0.1366 -0.1304 -0.9820
vn -0.4407 0.2698 -0.8562
vn -0.5541 0.8182 0.1537
vn -0.6993 -0.1953 0.6877
vn 0.9573 -0.2297 -0.1758
vn 0.4697 0.7969 -0.3799
vn -0.9573 0.2297 0.1758
vn 0.6993 0.1953 -0.6877
vn -0.2348 0.8430 -0.4841
vn -0.7235 0.6550 0.2180
vn -0.8989 -0.0008 0.4382
vn -0.8919 -0.4332 -0.1295
vn -0.7122 -0.0447 -0.7005
vn -0.6081 0.6278 -0.4858
vn 0.7122 0.0447 0.7005
vn 0.6081 -0.6278 0.4858
vn 0.7235 -0.6550 -0.2180
vn 0.8989 0.0008 -0.4382
vn 0.8919 0.4332 0.1295
vn -0.1108 0.8376 0.5350
vn -0.3946 -0.2235 0.8913
vn -0.3833 -0.9232 -0.0272
vn -0.0925 -0.2946 -0.9511
vn 0.0759 0.7936 -0.6037
vn 0.0925 0.2946 0.9511
vn -0.0759 -0.7936 0.6037
vn 0.1108 -0.8376 -0.5350
vn 0.3946 0.2235 -0.8913
vn 0.3833 0.9232 0.0272
vn -0.1717 0.5737 -0.8009
vn -0.2347 -0.1180 -0.9649
vn 0.3846 -0.4381 -0.8125
vn 0.8305 0.0557 -0.5543
vn 0.4866 0.6810 -0.5471
vn -0.8305 -0.0557 0.5543
vn -0.4866 -0.6810 0.5471
vn 0.1717 -0.5737 0.8009
vn 0.2347 0.1180 0.9649
vn -0.3846 0.4381 0.8125
vn -0.6358 0.7197 -0.2789
vn -0.7378 -0.3994 -0.5442
vn 0.2643 -0.9174 -0.2976
vn 0.9857 -0.1183 0.1202
vn 0.4293 0.8935 0.1318
vn -0.9857 0.1183 -0.1202
vn -0.4293 -0.8935 -0.1318
vn 0.6358 -0.7197 0.2789
vn 0.7378 0.3994 0.5442
vn -0.2643 0.9174 0.2976
vn 0.6480 -0.1519 -0.7463
vn 0.7243 -0.6471 -0.2382
vn 0.0988 -0.9820 -0.1610
vn -0.3639 -0.6938 -0.6215
vn -0.0245 -0.1807 -0.9832
vn 0.3640 0.6938 0.6215
vn 0.0245 0.1807 0.9832
vn -0.6480 0.1519 0.7463
vn -0.7243 0.6471 0.2382
vn -0.0988 0.9820 0.1610
vn 0.7493 0.4882 -0.4474
vn 0.8727 -0.3130 0.3748
vn -0.1393 -0.8550 0.4996
vn -0.8881 -0.3886 -0.2454
vn -0.3389 0.4415 -0.8308
vn 0.8881 0.3886 0.2454
vn 0.3389 -0.4415 0.8308
vn -0.7493 -0.4882 0.4475
vn -0.8727 0.3130 -0.3748
vn 0.1393 0.8550 -0.4996
vn 0.7220 -0.4096 -0.5577
vn 0.1165 -0.7837 -0.6101
vn -0.0688 -0.9966 0.0454
vn 0.4223 -0.7541 0.5029
vn 0.9110 -0.3914 0.1303
vn -0.4223 0.7541 -0.5029
vn -0.9110 0.3914 -0.1303
vn -0.7220 0.4096 0.5576
vn -0.1165 0.7837 0.6101
vn 0.0687 0.9966 -0.0453
vn 0.5869 0.2591 -0.7671
vn -0.3928 -0.3461 -0.8520
vn -0.6925 -0.6906 0.2086
vn 0.1020 -0.2983 0.9490
vn 0.8927 0.2886 0.3460
vn -0.1020 0.2983 -0.9490
vn -0.8927 -0.2886 -0.3460
vn -0.5869 -0.2591 0.7671
vn 0.3928 0.3461 0.8520
vn 0.6925 0.6906 -0.2086
vt 0.474336 0.930396
vt 0.659786 0.930396
vt 0.520698 0.924894
vt 0.567061 0.930396
vt 0.613423 0.924894
vt 0.170651 0.062277
vt 0.088423 0.846225
vt 0.010000 0.846225
vt 0.402114 0.846225
vt 0.049211 0.990000
vt 0.127634 0.990000
vt 0.206057 0.990000
vt 0.284480 0.990000
vt 0.362902 0.990000
vt 0.166845 0.846225
vt 0.245268 0.846225
vt 0.323691 0.846225
vt 0.049211 0.702450
vt 0.441325 0.702450
vt 0.127634 0.702450
vt 0.088423 0.558675
vt 0.166845 0.558675
vt 0.245268 0.558675
vt 0.323691 0.558675
vt 0.402114 0.558675
vt 0.206057 0.702450
vt 0.284480 0.702450
vt 0.362902 0.702450
vt 0.109188 0.373689
vt 0.059594 0.555533
vt 0.158782 0.555533
vt 0.257969 0.555533
vt 0.357157 0.555533
vt 0.456345 0.555533
vt 0.010000 0.373689
vt 0.505939 0.373689
vt 0.208375 0.373689
vt 0.307564 0.373689
vt 0.406751 0.373689
vt 0.059594 0.191844
vt 0.555533 0.191844
vt 0.109188 0.010000
vt 0.406751 0.010000
vt 0.505939 0.010000
vt 0.158782 0.191844
vt 0.357157 0.191844
vt 0.456345 0.191844
vt 0.464198 0.872173
vt 0.400837 0.872173
vt 0.717642 0.872173
vt 0.432518 0.988334
vt 0.495878 0.988334
vt 0.559239 0.988334
vt 0.622601 0.988334
vt 0.685962 0.988334
vt 0.527559 0.872173
vt 0.590920 0.872173
vt 0.654281 0.872173
vt 0.432518 0.756011
vt 0.749323 0.756011
vt 0.495878 0.756011
vt 0.464198 0.639849
vt 0.527559 0.639849
vt 0.590920 0.639849
vt 0.654281 0.639849
vt 0.717642 0.639849
vt 0.559239 0.756011
vt 0.622601 0.756011
vt 0.685962 0.756011
vt 0.748090 0.583761
vt 0.710500 0.583761
vt 0.898447 0.583761
vt 0.729295 0.652675
vt 0.766884 0.652675
vt 0.804473 0.652675
vt 0.842063 0.652675
vt 0.879652 0.652675
vt 0.785679 0.583761
vt 0.823268 0.583761
vt 0.860858 0.583761
vt 0.729295 0.514847
vt 0.917241 0.514847
vt 0.766884 0.514847
vt 0.748090 0.445934
vt 0.785679 0.445934
vt 0.823268 0.445934
vt 0.860858 0.445934
vt 0.898447 0.445934
vt 0.804473 0.514847
vt 0.842063 0.514847
vt 0.879652 0.514847
vt 0.588077 0.268129
vt 0.564357 0.355103
vt 0.611797 0.355103
vt 0.659238 0.355103
vt 0.706678 0.355103
vt 0.754119 0.355103
vt 0.540636 0.268129
vt 0.777839 0.268129
vt 0.635517 0.268129
vt 0.682958 0.268129
vt 0.730399 0.268129
vt 0.564357 0.181155
vt 0.801559 0.181155
vt 0.588077 0.094180
vt 0.635517 0.094180
vt 0.682958 0.094180
vt 0.730399 0.094180
vt 0.777839 0.094180
vt 0.611797 0.181155
vt 0.659238 0.181155
vt 0.706678 0.181155
vt 0.754119 0.181155
vt 0.515525 0.543765
vt 0.465475 0.543765
vt 0.715723 0.543765
vt 0.490500 0.635522
vt 0.540550 0.635522
vt 0.590599 0.635522
vt 0.640649 0.635522
vt 0.690698 0.635522
vt 0.565574 0.543765
vt 0.615624 0.543765
vt 0.665673 0.543765
vt 0.490500 0.452007
vt 0.740748 0.452007
vt 0.540550 0.452007
vt 0.515525 0.360250
vt 0.565574 0.360250
vt 0.615624 0.360250
vt 0.665673 0.360250
vt 0.715723 0.360250
vt 0.590599 0.452007
vt 0.640649 0.452007
vt 0.690698 0.452007
vt 0.531276 0.982187
vt 0.170651 0.081439
vt 0.577638 0.981110
vt 0.151488 0.062277
vt 0.484913 0.986216
vt 0.670363 0.986216
vt 0.189813 0.062277
vt 0.624001 0.985614
vt 0.170651 0.043114
s 0
usemtl Bark.001
f 13/1/1 14/3/1 94/136/2 96/140/2
f 14/3/3 15/4/3 95/138/3 94/136/3
f 16/5/4 97/143/4 95/138/4 15/4/4
f 16/5/5 13/2/5 96/141/5 97/143/5
f 94/137/6 95/139/7 21/6/8 96/142/9
f 95/139/10 97/144/10 96/142/10
f 95/139/11 96/142/11 21/6/11
usemtl Tree.001
f 22/7/12 23/8/12 24/10/12
f 25/15/13 22/7/13 24/11/13
f 26/16/14 25/15/14 24/12/14
f 27/17/15 26/16/15 24/13/15
f 23/9/16 27/17/16 24/14/16
f 28/18/17 29/20/17 30/21/17
f 29/20/18 31/26/18 30/22/18
f 31/26/19 32/27/19 30/23/19
f 32/27/20 33/28/20 30/24/20
f 33/28/21 28/19/21 30/25/21
f 22/7/22 28/18/22 23/8/22
f 25/15/23 29/20/23 22/7/23
f 26/16/24 31/26/24 25/15/24
f 27/17/25 32/27/25 26/16/25
f 23/9/26 33/28/26 27/17/26
f 28/18/27 22/7/27 29/20/27
f 29/20/28 25/15/28 31/26/28
f 31/26/29 26/16/29 32/27/29
f 32/27/30 27/17/30 33/28/30
f 33/28/31 23/9/31 28/19/31
f 34/29/32 35/30/32 36/35/32
f 37/37/33 35/31/33 34/29/33
f 38/38/34 35/32/34 37/37/34
f 39/39/35 35/33/35 38/38/35
f 36/36/36 35/34/36 39/39/36
f 40/40/37 41/42/37 42/45/37
f 43/46/38 41/43/38 44/47/38
f 44/47/39 41/44/39 40/41/39
f 34/29/40 36/35/40 40/40/40
f 37/37/41 34/29/41 42/45/41
f 39/39/42 38/38/42 43/46/42
f 36/36/43 39/39/43 44/47/43
f 40/40/44 42/45/44 34/29/44
f 43/46/45 44/47/45 39/39/45
f 44/47/46 40/41/46 36/36/46
f 45/48/47 46/49/47 47/51/47
f 48/56/48 45/48/48 47/52/48
f 49/57/49 48/56/49 47/53/49
f 50/58/50 49/57/50 47/54/50
f 46/50/51 50/58/51 47/55/51
f 51/59/52 52/61/52 53/62/52
f 52/61/53 54/67/53 53/63/53
f 54/67/54 55/68/54 53/64/54
f 55/68/55 56/69/55 53/65/55
f 56/69/56 51/60/56 53/66/56
f 45/48/57 51/59/57 46/49/57
f 48/56/58 52/61/58 45/48/58
f 49/57/59 54/67/59 48/56/59
f 50/58/60 55/68/60 49/57/60
f 46/50/61 56/69/61 50/58/61
f 51/59/62 45/48/62 52/61/62
f 52/61/63 48/56/63 54/67/63
f 54/67/64 49/57/64 55/68/64
f 55/68/65 50/58/65 56/69/65
f 56/69/66 46/50/66 51/60/66
f 57/70/67 58/71/67 59/73/67
f 60/78/68 57/70/68 59/74/68
f 61/79/69 60/78/69 59/75/69
f 62/80/70 61/79/70 59/76/70
f 58/72/71 62/80/71 59/77/71
f 63/81/72 64/83/72 65/84/72
f 64/83/73 66/89/73 65/85/73
f 66/89/74 67/90/74 65/86/74
f 67/90/75 68/91/75 65/87/75
f 68/91/76 63/82/76 65/88/76
f 57/70/77 63/81/77 58/71/77
f 60/78/78 64/83/78 57/70/78
f 61/79/79 66/89/79 60/78/79
f 62/80/80 67/90/80 61/79/80
f 58/72/81 68/91/81 62/80/81
f 63/81/82 57/70/82 64/83/82
f 64/83/83 60/78/83 66/89/83
f 66/89/84 61/79/84 67/90/84
f 67/90/85 62/80/85 68/91/85
f 68/91/86 58/72/86 63/82/86
f 69/92/87 70/93/87 71/98/87
f 72/100/88 70/94/88 69/92/88
f 73/101/89 70/95/89 72/100/89
f 74/102/90 70/96/90 73/101/90
f 71/99/91 70/97/91 74/102/91
f 75/103/92 76/105/92 77/110/92
f 77/110/93 76/106/93 78/111/93
f 78/111/94 76/107/94 79/112/94
f 79/112/95 76/108/95 80/113/95
f 80/113/96 76/109/96 75/104/96
f 69/92/97 71/98/97 75/103/97
f 72/100/98 69/92/98 77/110/98
f 73/101/99 72/100/99 78/111/99
f 74/102/100 73/101/100 79/112/100
f 71/99/101 74/102/101 80/113/101
f 75/103/102 77/110/102 69/92/102
f 77/110/103 78/111/103 72/100/103
f 78/111/104 79/112/104 73/101/104
f 79/112/105 80/113/105 74/102/105
f 80/113/106 75/104/106 71/99/106
f 81/114/107 82/115/107 83/117/107
f 84/122/108 81/114/108 83/118/108
f 85/123/109 84/122/109 83/119/109
f 86/124/110 85/123/110 83/120/110
f 82/116/111 86/124/111 83/121/111
f 87/125/112 88/127/112 89/128/112
f 88/127/113 90/133/113 89/129/113
f 90/133/114 91/134/114 89/130/114
f 91/134/115 92/135/115 89/131/115
f 92/135/116 87/126/116 89/132/116
f 81/114/117 87/125/117 82/115/117
f 84/122/118 88/127/118 81/114/118
f 85/123/119 90/133/119 84/122/119
f 86/124/120 91/134/120 85/123/120
f 82/116/121 92/135/121 86/124/121
f 87/125/122 81/114/122 88/127/122
f 88/127/123 84/122/123 90/133/123
f 90/133/124 85/123/124 91/134/124
f 91/134/125 86/124/125 92/135/125
f 92/135/126 82/116/126 87/126/126
l 19 20
l 8 12
l 1 2
l 1 6
l 9 10
l 9 12
l 2 3
l 10 11
l 3 4
l 11 12
l 4 5
l 5 6
l 17 18
l 17 20
l 18 19
